<svg width="24" height="25" viewBox="0 0 24 25" fill="none" xmlns="http://www.w3.org/2000/svg">
<g clip-path="url(#clip0_47_406)">
<mask id="mask0_47_406" style="mask-type:luminance" maskUnits="userSpaceOnUse" x="0" y="0" width="24" height="25">
<path fill-rule="evenodd" clip-rule="evenodd" d="M12 24.5C18.6274 24.5 24 19.1274 24 12.5C24 5.87258 18.6274 0.5 12 0.5C5.37258 0.5 0 5.87258 0 12.5C0 19.1274 5.37258 24.5 12 24.5Z" fill="white"/>
</mask>
<g mask="url(#mask0_47_406)">
<path fill-rule="evenodd" clip-rule="evenodd" d="M12 24.5C18.6274 24.5 24 19.1274 24 12.5C24 5.87258 18.6274 0.5 12 0.5C5.37258 0.5 0 5.87258 0 12.5C0 19.1274 5.37258 24.5 12 24.5Z" fill="#0069FF"/>
<g clip-path="url(#clip1_47_406)">
<g clip-path="url(#clip2_47_406)">
<path d="M9.90508 17.2364C9.90508 17.2364 8.10601 18.3707 9.08375 20.0915C10.0615 21.8124 16.8277 21.3431 13.3468 17.2364C10.4714 13.8441 9.90508 17.2364 9.90508 17.2364Z" fill="#863F38"/>
<path d="M16.4897 12.8559C16.4897 12.8559 15.7074 13.7946 15.864 14.7333C16.089 16.0841 14.0257 17.8622 11.9137 17.2755C9.80171 16.6889 12.0701 12.7386 12.0701 12.7386L16.4897 12.8559Z" fill="#863F38"/>
<path d="M6.61975 12.8559C6.61975 12.8559 7.40201 13.7946 7.24549 14.7333C7.02044 16.0841 9.08375 17.8622 11.1957 17.2755C13.3077 16.6889 11.0393 12.7386 11.0393 12.7386L6.61975 12.8559Z" fill="#863F38"/>
<path d="M11.9874 15.8105C12.9601 15.8235 13.9294 15.6507 14.8034 15.2028C15.2659 14.9658 15.583 14.6407 15.8571 14.2747C15.9455 13.5117 16.4898 12.8559 16.4898 12.8559L12.0702 12.7386C12.0702 12.7386 11.1084 14.4145 11.0211 15.7452C11.3448 15.783 11.6678 15.8063 11.9874 15.8105Z" fill="#AA534F"/>
<path d="M7.263 14.5695C8.70456 15.3352 10.3876 15.789 11.9874 15.8105C12.0223 15.811 12.057 15.8093 12.0917 15.8093C12.0323 14.4689 11.0393 12.7386 11.0393 12.7386L6.61978 12.8559C6.61978 12.8559 7.31287 13.6885 7.263 14.5695Z" fill="#AA534F"/>
<path d="M13.9184 19.1934C12.9232 18.6507 13.1946 16.0265 13.1946 16.0265L11.7041 16.1226V16.0268L11.5446 16.0747L11.3851 16.0268V16.1226L9.89459 16.0265C9.89459 16.0265 10.1661 18.6507 9.17088 19.1934C8.17566 19.7363 2.05989 20.0077 2.69326 26.0695H11.3851H11.7041H20.3959C21.0293 20.0077 14.9136 19.7363 13.9184 19.1934Z" fill="#FFAE9E"/>
<path d="M9.68564 18.5165C10.8762 18.3391 12.066 18.1559 13.2549 17.9673C13.0876 17.0625 13.1946 16.0265 13.1946 16.0265L11.7041 16.1226V16.0268L11.5445 16.0747L11.3851 16.0268V16.1226L9.89461 16.0265C9.89461 16.0265 10.0517 17.5511 9.68564 18.5165Z" fill="#E18980"/>
<path d="M15.9425 19.6603C15.0713 20.4497 13.7857 20.9967 12.318 21.138L11.5275 23.984L11.1092 21.1605C9.51889 21.0685 8.11817 20.5023 7.18889 19.6603C5.12218 20.3225 2.10319 21.7582 2.55364 26.0695H11.4033H11.7282H20.5778C21.0282 21.7582 18.0093 20.3225 15.9425 19.6603Z" fill="#438685"/>
<path d="M11.2164 21.8845L11.1092 21.1605C9.51887 21.0685 8.11815 20.5023 7.18887 19.6603C6.8378 19.7728 6.46586 19.9084 6.09262 20.076C6.8256 21.0722 8.8205 21.8054 11.2164 21.8845Z" fill="#5CAAA6"/>
<path d="M17.1604 20.131C16.7466 19.9373 16.3319 19.785 15.9426 19.6603C15.0714 20.4497 13.7858 20.9967 12.3181 21.138L12.111 21.8833C14.4479 21.8001 16.3991 21.0945 17.1604 20.131Z" fill="#5CAAA6"/>
<path d="M11.3482 24.6713C11.3482 24.8529 11.4953 25 11.6769 25C11.8584 25 12.0055 24.8529 12.0055 24.6713C12.0055 24.4898 11.8584 24.3427 11.6769 24.3427C11.4953 24.3427 11.3482 24.4898 11.3482 24.6713Z" fill="#5CAAA6"/>
<path d="M8.63042 12.1854C8.33721 11.2758 7.64283 11.4864 7.57783 11.5083C7.50966 11.5163 6.79193 11.6228 6.91595 12.5705C7.04067 13.524 7.59378 14.0406 8.11251 13.8889C8.64638 13.8043 8.9254 13.1006 8.63042 12.1854Z" fill="#E18980"/>
<path d="M14.4856 12.1854C14.7788 11.2758 15.4732 11.4864 15.5382 11.5083C15.6063 11.5163 16.3241 11.6228 16.2 12.5705C16.0753 13.524 15.5222 14.0406 15.0035 13.8889C14.4696 13.8043 14.1906 13.1006 14.4856 12.1854Z" fill="#E18980"/>
<path d="M7.91906 10.8073C8.28244 6.81904 11.3144 7.04244 11.6004 7.07248C11.8863 7.04244 14.9182 6.81904 15.2816 10.8073C15.6472 14.8193 13.8602 17.4396 11.6004 17.2954C9.34043 17.4396 7.55344 14.8193 7.91906 10.8073Z" fill="#FFAE9E"/>
<path d="M7.79309 11.5653C7.79309 11.5653 7.59749 16.8062 10.6874 17.3929C13.7771 17.9795 15.6935 15.3982 15.4198 11.2915L15.0287 11.2524C15.0287 11.2524 14.7744 15.3982 13.8358 15.4373C12.8971 15.4764 14.2855 14.1466 12.4864 14.0684C10.6874 13.9902 9.79691 13.3904 9.65083 14.9093C9.55309 15.9262 8.30149 14.1857 8.14509 11.487C7.98868 8.78836 7.79309 11.5653 7.79309 11.5653Z" fill="#AA534F"/>
<path d="M8.29334 12.6914C8.22235 12.3188 8.1699 11.915 8.14503 11.487C7.98862 8.78834 7.79303 11.5653 7.79303 11.5653C7.79303 11.5653 7.77191 12.1341 7.85393 12.9179C8.00083 12.8433 8.14702 12.7673 8.29334 12.6914Z" fill="#863F38"/>
<path d="M15.4233 12.7261C15.4535 12.2726 15.4532 11.7937 15.4198 11.2915L15.0286 11.2524C15.0286 11.2524 14.9936 11.8202 14.9023 12.5371C15.0763 12.5991 15.2501 12.662 15.4233 12.7261Z" fill="#863F38"/>
<path d="M12.1231 11.275C12.1736 11.458 12.2126 11.6423 12.2475 11.827C12.2822 12.0118 12.3116 12.1972 12.3377 12.383C12.3516 12.4756 12.3613 12.5689 12.3733 12.6619C12.3856 12.7549 12.3948 12.8482 12.4037 12.9415C12.4234 13.1279 12.4371 13.315 12.4482 13.5024L12.4511 13.5529L12.4147 13.5753C12.2953 13.6489 12.1741 13.72 12.0518 13.7894C11.9285 13.8572 11.8056 13.9258 11.6773 13.9864C11.7801 13.8885 11.8882 13.7986 11.996 13.708C12.1048 13.6189 12.2149 13.5315 12.3266 13.4467L12.2932 13.5196C12.2629 13.3343 12.2354 13.1487 12.2138 12.9625C12.2021 12.8695 12.1907 12.7764 12.1824 12.683C12.1737 12.5897 12.1628 12.4965 12.156 12.403C12.141 12.2161 12.129 12.0288 12.1224 11.8409C12.1162 11.6529 12.114 11.4646 12.1231 11.275Z" fill="#E18980"/>
<path d="M14.4597 10.9793C14.4597 10.9793 14.4281 10.9618 14.3728 10.9312C14.346 10.9165 14.3134 10.8987 14.276 10.8783C14.2394 10.8589 14.198 10.837 14.153 10.8132C14.1064 10.7932 14.0598 10.7664 14.0077 10.7459C13.9825 10.7347 13.9565 10.7232 13.93 10.7113C13.9033 10.7016 13.8759 10.6917 13.8482 10.6815C13.7942 10.6577 13.7354 10.6489 13.6793 10.6291C13.6211 10.623 13.5641 10.6009 13.506 10.6031L13.4195 10.5961C13.391 10.5995 13.3626 10.6004 13.3341 10.6021C13.2764 10.5996 13.2227 10.6211 13.167 10.628C13.1114 10.6368 13.0616 10.6637 13.0094 10.6774L12.9708 10.6894L12.9357 10.7072C12.9118 10.7184 12.8888 10.729 12.8666 10.7395C12.8226 10.7613 12.7775 10.777 12.7434 10.8007C12.7085 10.8227 12.6751 10.8399 12.6479 10.8549C12.5931 10.8846 12.558 10.9001 12.558 10.9001C12.558 10.9001 12.5719 10.8668 12.6029 10.8109C12.6185 10.7831 12.6372 10.7485 12.662 10.711C12.6838 10.6705 12.7184 10.6337 12.7577 10.5936C12.7983 10.5555 12.8348 10.5027 12.8924 10.4694C12.9484 10.4351 13.004 10.3887 13.0736 10.3628C13.1081 10.3489 13.144 10.3364 13.1804 10.3235C13.2163 10.3083 13.2549 10.3017 13.2944 10.2971C13.3337 10.2917 13.3735 10.2856 13.4136 10.282C13.4535 10.2825 13.4938 10.2853 13.5339 10.2875C13.6153 10.2892 13.6905 10.3161 13.766 10.3346C13.8021 10.3476 13.8369 10.3633 13.8711 10.3783C13.9061 10.3923 13.9388 10.4086 13.9686 10.4286C13.9991 10.4473 14.0294 10.4649 14.0578 10.4841C14.0843 10.5051 14.1104 10.5257 14.1357 10.5457C14.187 10.5844 14.2258 10.6319 14.2647 10.6706C14.3378 10.7538 14.388 10.8304 14.4177 10.8874C14.4486 10.9438 14.4597 10.9793 14.4597 10.9793Z" fill="#352836"/>
<path d="M10.6828 10.9793C10.6828 10.9793 10.6513 10.9618 10.596 10.9312C10.5691 10.9165 10.5365 10.8987 10.4992 10.8783C10.4626 10.8589 10.4212 10.837 10.3761 10.8132C10.3295 10.7932 10.283 10.7664 10.2309 10.7459C10.2056 10.7347 10.1797 10.7232 10.1532 10.7113C10.1264 10.7016 10.0991 10.6917 10.0714 10.6815C10.0173 10.6577 9.95854 10.6489 9.90246 10.6291C9.84426 10.623 9.78724 10.6009 9.72916 10.6031L9.64268 10.5961C9.61417 10.5995 9.58577 10.6004 9.55726 10.6021C9.49953 10.5996 9.44591 10.6211 9.39018 10.628C9.33456 10.6368 9.28481 10.6637 9.2326 10.6774L9.194 10.6894L9.15892 10.7072C9.13498 10.7184 9.11198 10.729 9.08981 10.7395C9.04581 10.7613 9.00063 10.777 8.96661 10.8007C8.93164 10.8227 8.89844 10.8399 8.8711 10.8549C8.8163 10.8846 8.78122 10.9001 8.78122 10.9001C8.78122 10.9001 8.79506 10.8668 8.82604 10.8109C8.84165 10.7831 8.86042 10.7485 8.88506 10.711C8.907 10.6705 8.94161 10.6337 8.98092 10.5936C9.02152 10.5555 9.05801 10.5027 9.11562 10.4694C9.17159 10.4351 9.2272 10.3887 9.29678 10.3628C9.33128 10.3489 9.36718 10.3364 9.40356 10.3235C9.43946 10.3083 9.47806 10.3017 9.5176 10.2971C9.55691 10.2917 9.59669 10.2856 9.63681 10.282C9.67671 10.2825 9.71695 10.2853 9.75708 10.2875C9.83851 10.2892 9.91372 10.3161 9.98917 10.3346C10.0253 10.3476 10.06 10.3633 10.0943 10.3783C10.1293 10.3923 10.162 10.4086 10.1918 10.4286C10.2223 10.4473 10.2526 10.4649 10.281 10.4841C10.3075 10.5051 10.3335 10.5257 10.3589 10.5457C10.4102 10.5844 10.449 10.6319 10.4878 10.6706C10.5608 10.7538 10.6111 10.8304 10.6408 10.8874C10.6718 10.9438 10.6828 10.9793 10.6828 10.9793Z" fill="#352836"/>
<path d="M10.563 12.4245C10.563 12.4245 10.5548 12.3922 10.5364 12.3379C10.518 12.2837 10.4893 12.2075 10.4446 12.1239C10.3993 12.0411 10.3361 11.951 10.2479 11.8853C10.2045 11.8521 10.1546 11.8257 10.1005 11.8092C10.0739 11.7999 10.0466 11.7911 10.0172 11.7892C9.98845 11.7853 9.95994 11.7792 9.92978 11.7823C9.90186 11.7833 9.8663 11.7798 9.8446 11.7838C9.81409 11.7896 9.77584 11.7912 9.75226 11.8004C9.70462 11.8159 9.65029 11.8341 9.60934 11.8683C9.56546 11.8983 9.53167 11.9395 9.50116 11.9803C9.47371 12.0236 9.45012 12.0677 9.43299 12.1115C9.39897 12.1989 9.38172 12.2787 9.37163 12.3349C9.36165 12.3912 9.35872 12.4245 9.35872 12.4245C9.35872 12.4245 9.3498 12.3924 9.34382 12.3338C9.33831 12.2756 9.3349 12.1905 9.35579 12.0886C9.36588 12.0377 9.38324 11.983 9.4107 11.9276C9.4405 11.8741 9.47652 11.8159 9.53179 11.7723C9.58365 11.7251 9.64818 11.6905 9.72339 11.6682C9.76059 11.6554 9.78875 11.6551 9.82219 11.6478C9.8649 11.6403 9.89564 11.644 9.93307 11.6422C9.96874 11.64 10.0049 11.6476 10.0408 11.6535C10.0769 11.6574 10.1115 11.6689 10.1457 11.6817C10.1808 11.6914 10.2121 11.7097 10.2425 11.7284C10.2743 11.7447 10.3 11.7686 10.3264 11.7905C10.4292 11.8816 10.4863 11.9954 10.5182 12.0922C10.5509 12.19 10.5602 12.2744 10.5636 12.3328C10.5665 12.3913 10.563 12.4245 10.563 12.4245Z" fill="#352836"/>
<path d="M13.957 12.3698C13.957 12.3698 13.9488 12.3374 13.9303 12.2832C13.9119 12.2291 13.8833 12.1527 13.8386 12.0692C13.7933 11.9864 13.7301 11.8962 13.6418 11.8305C13.5984 11.7973 13.5485 11.7709 13.4945 11.7545C13.4678 11.7451 13.4406 11.7363 13.4111 11.7344C13.3824 11.7306 13.3539 11.7245 13.3237 11.7275C13.2958 11.7286 13.2603 11.7251 13.2385 11.729C13.208 11.7349 13.1698 11.7364 13.1462 11.7457C13.0986 11.7612 13.0442 11.7794 13.0033 11.8135C12.9594 11.8436 12.9256 11.8847 12.8951 11.9256C12.8677 11.9689 12.8442 12.013 12.8269 12.0568C12.7929 12.1442 12.7757 12.224 12.7656 12.2802C12.7556 12.3365 12.7527 12.3698 12.7527 12.3698C12.7527 12.3698 12.7438 12.3377 12.7378 12.2792C12.7323 12.2209 12.7289 12.1357 12.7497 12.0339C12.7598 11.983 12.7772 11.9283 12.8047 11.873C12.8345 11.8194 12.8705 11.7612 12.9257 11.7175C12.9776 11.6704 13.0423 11.6358 13.1173 11.6135C13.1545 11.6007 13.1827 11.6003 13.2161 11.5931C13.2588 11.5855 13.2896 11.5893 13.327 11.5874C13.3627 11.5853 13.3988 11.5928 13.4347 11.5988C13.4709 11.6027 13.5055 11.6142 13.5396 11.627C13.5747 11.6367 13.606 11.655 13.6364 11.6737C13.6682 11.69 13.6939 11.7139 13.7203 11.7356C13.8231 11.8269 13.8802 11.9407 13.9122 12.0375C13.9449 12.1353 13.9542 12.2196 13.9576 12.278C13.9605 12.3366 13.957 12.3698 13.957 12.3698Z" fill="#352836"/>
<path d="M13.1461 14.7028C12.4243 15.4045 11.2015 15.3657 10.2754 14.7403L13.1461 14.7028Z" fill="white"/>
<path d="M11.6545 7.65418C11.6545 7.65418 9.46424 7.26311 9.11224 8.63192C8.76024 10.0009 9.26877 11.8391 7.66517 11.5653C7.66517 11.5653 6.5024 11.7999 7.24547 13.6382C7.24547 13.6382 5.04476 11.5262 6.33543 10.0009C7.38826 8.75653 6.96117 6.05059 9.5425 5.62045C12.1238 5.19018 11.6545 7.14578 11.6545 7.65418Z" fill="#863F38"/>
<path d="M11.6545 7.65418C11.6545 7.65418 9.46424 7.26311 9.11224 8.63192C8.76024 10.0009 9.26877 11.8391 7.66517 11.5653C7.66517 11.5653 6.5024 11.7999 7.24547 13.6382C7.24547 13.6382 5.04476 11.5262 6.33543 10.0009C7.38826 8.75653 6.96117 6.05059 9.5425 5.62045C12.1238 5.19018 11.6545 7.14578 11.6545 7.65418Z" fill="#AA534F"/>
<path d="M11.455 7.65418C11.455 7.65418 13.6452 7.26311 13.9972 8.63192C14.3492 10.0009 13.8407 11.8391 15.4443 11.5653C15.4443 11.5653 16.6071 11.7999 15.8639 13.6382C15.8639 13.6382 18.0647 11.5262 16.7741 10.0009C15.7212 8.75653 16.1483 6.05059 13.567 5.62045C10.9856 5.19018 11.455 7.14578 11.455 7.65418Z" fill="#AA534F"/>
<path d="M11.4192 7.33108C11.5726 7.32756 11.7172 7.33402 11.8653 7.34505C12.0124 7.35631 12.1591 7.37438 12.3053 7.39914C12.5973 7.44853 12.8877 7.53031 13.1633 7.66126C13.436 7.7922 13.7025 7.98146 13.8744 8.25543C13.96 8.39072 14.0195 8.54243 14.0514 8.69708C14.0838 8.85208 14.0933 8.99428 14.1028 9.14247C14.1183 9.43557 14.11 9.72503 14.0976 10.011C14.0867 10.2967 14.0723 10.5806 14.0914 10.858C14.1015 10.9963 14.1205 11.1333 14.1599 11.2613C14.1993 11.3891 14.2598 11.508 14.353 11.5981C14.4451 11.6888 14.5684 11.747 14.7009 11.7774C14.8336 11.8086 14.9744 11.8137 15.1145 11.8075L15.1196 11.8072L15.1213 11.8075C15.2109 11.8207 15.2935 11.8447 15.3754 11.8766C15.4564 11.9088 15.5344 11.9505 15.6029 12.0051C15.671 12.0597 15.7295 12.1281 15.765 12.2076C15.8019 12.2864 15.8134 12.374 15.8095 12.4585C15.8067 12.3738 15.7883 12.2891 15.747 12.2166C15.7071 12.1434 15.6469 12.0837 15.579 12.0374C15.5106 11.9912 15.4341 11.9579 15.3553 11.9334C15.2768 11.9094 15.1933 11.8932 15.1142 11.8873H15.1209C14.9764 11.9026 14.8283 11.9072 14.68 11.8822C14.5327 11.858 14.3826 11.8005 14.2632 11.6969C14.1432 11.5942 14.0601 11.455 14.0094 11.3122C13.9577 11.1688 13.9306 11.0213 13.9127 10.8754C13.8786 10.5826 13.8799 10.2933 13.8769 10.0073C13.8739 9.72151 13.8741 9.43815 13.8495 9.16043C13.8365 9.02373 13.8205 8.87988 13.7894 8.75574C13.7594 8.63161 13.7088 8.51462 13.6381 8.41032C13.4957 8.20134 13.2773 8.04588 13.0348 7.93558C12.7916 7.82423 12.524 7.757 12.2526 7.71124C12.1167 7.6886 11.9792 7.67205 11.8411 7.66196C11.7039 7.65199 11.5623 7.64659 11.4298 7.65011L11.4192 7.33108Z" fill="#AA534F"/>
</g>
</g>
</g>
</g>
<defs>
<clipPath id="clip0_47_406">
<rect width="24" height="24" fill="white" transform="translate(0 0.5)"/>
</clipPath>
<clipPath id="clip1_47_406">
<rect width="24" height="24" fill="white" transform="translate(0 4.5)"/>
</clipPath>
<clipPath id="clip2_47_406">
<rect width="22" height="22" fill="white" transform="translate(0 4.5)"/>
</clipPath>
</defs>
</svg>
