<svg width="23" height="24" viewBox="0 0 23 24" fill="none" xmlns="http://www.w3.org/2000/svg">
<path d="M13.6562 2.65625C9.6947 2.65625 6.46875 5.8822 6.46875 9.84375C6.46875 11.5648 7.07239 13.1427 8.08594 14.3809L2.3584 20.1084L3.3916 21.1416L9.11914 15.4141C10.3573 16.4276 11.9352 17.0312 13.6562 17.0312C17.6178 17.0312 20.8438 13.8053 20.8438 9.84375C20.8438 5.8822 17.6178 2.65625 13.6562 2.65625ZM13.6562 4.09375C16.8401 4.09375 19.4062 6.65991 19.4062 9.84375C19.4062 13.0276 16.8401 15.5938 13.6562 15.5938C10.4724 15.5938 7.90625 13.0276 7.90625 9.84375C7.90625 6.65991 10.4724 4.09375 13.6562 4.09375Z" fill="black"/>
</svg>
